<svg xmlns="http://www.w3.org/2000/svg" xmlns:xlink="http://www.w3.org/1999/xlink" preserveAspectRatio="xMidYMid" width="40" height="50" viewBox="0 0 40 50">
  <path fill-rule="evenodd" fill="#004e94" d="M20.000,0.999 C30.493,0.999 39.000,9.594 39.000,20.198 C39.000,30.802 20.000,48.999 20.000,48.999 C20.000,48.999 1.000,30.802 1.000,20.198 C1.000,9.594 9.506,0.999 20.000,0.999 Z"/>
  <path fill-rule="evenodd" fill="#fff" d="M20.000,49.999 C20.000,49.999 -0.000,31.044 -0.000,19.998 C-0.000,8.952 8.954,-0.001 20.000,-0.001 C31.046,-0.001 40.000,8.952 40.000,19.998 C40.000,31.044 20.000,49.999 20.000,49.999 ZM20.000,1.999 C10.059,1.999 2.000,10.057 2.000,19.999 C2.000,29.939 20.000,46.999 20.000,46.999 C20.000,46.999 38.000,29.939 38.000,19.999 C38.000,10.057 29.941,1.999 20.000,1.999 Z"/>
  <circle fill="#f5f8fc" cx="20" cy="20" r="6"/>
</svg>
